<svg viewBox="0 0 110 110">
<defs>
<style>.cls-1, .cls-2, .cls-3 {
        font-family: CenturyGothic, Century Gothic;
        fill: #fff;
      }
      .cls-1, .cls-2, .cls-3 {
        font-size: 4px;
      }
      .cls-10, .cls-4, .cls-5, .cls-6, .cls-7, .cls-8, .cls-9 {
        fill: none;
        stroke: #FFF;
        stroke-linecap: round;
        stroke-linejoin: round;
      }
      .cls-4 {
        stroke-width: 0.5px;
      }
      .cls-5, .cls-6, .cls-7, .cls-8, .cls-9 {
        stroke-width: 0.1px;
      }
      .cls-5 {
        stroke-dasharray: 0.99 1.99;
      }
      .cls-6 {
        stroke-dasharray: 1.01 2.01;
      }
      .cls-8 {
        stroke-dasharray: 1.01 2.02;
      }
      .cls-9 {
        stroke-dasharray: 1 2;
      }</style>
</defs>
<text class="cls-1" transform="translate(0 56) scale(1)">W</text>
<text class="cls-2" transform="matrix(.71 -.7 .71 .7 16.84 21.22)">NW</text>
<text class="cls-3" transform="translate(54.1 3.7) scale(1)">N</text>
<text class="cls-2" transform="matrix(.71 .7 -.71 .7 90.32 16.65)">NE</text>
<text class="cls-3" transform="translate(107.7 56) scale(1)">E</text>
<text class="cls-2" transform="matrix(.71 -.7 .71 .7 93.11 94.4)">SE</text>
<text class="cls-3" transform="translate(55 108.7) scale(1.01 1)">S</text>
<text class="cls-2" transform="matrix(.71 .7 -.71 .7 14.88 90.69)">SW</text>
<circle class="cls-4" cx="56" cy="54.5" r="50"/>
<circle class="cls-5" cx="56" cy="54.5" r="37.5"/>
<circle class="cls-6" cx="56" cy="54.5" r="25"/>
<circle class="cls-6" cx="56" cy="54.5" r="12.5"/>
<line class="cls-8" x1="8.5" x2="104.5" y1="54.5" y2="54.5"/>
<line class="cls-8" x1="56" x2="56" y1="102" y2="6"/>
<line class="cls-9" x1="22.8" x2="89.9" y1="87.7" y2="20.6"/>
<line class="cls-9" x1="22.8" x2="89.9" y1="21.3" y2="88.4"/>
</svg>
